Coordinates
version=1
nRows=8
nColumns=36
inDegrees=yes

Units are S.I. units (second, meters, Newtons, ...)
If the header above contains a line with 'inDegrees', this indicates whether rotational values are in degrees (yes) or radians (no).

endheader
time	pelvis_tilt	pelvis_list	pelvis_rotation	pelvis_tx	pelvis_ty	pelvis_tz	hip_flexion_r	hip_adduction_r	hip_rotation_r	knee_angle_r	knee_angle_r_beta	ankle_angle_r	subtalar_angle_r	mtp_angle_r	hip_flexion_l	hip_adduction_l	hip_rotation_l	knee_angle_l	knee_angle_l_beta	ankle_angle_l	subtalar_angle_l	mtp_angle_l	lumbar_extension	lumbar_bending	lumbar_rotation	arm_flex_r	arm_add_r	arm_rot_r	elbow_flex_r	pro_sup_r	arm_flex_l	arm_add_l	arm_rot_l	elbow_flex_l	pro_sup_l
      6.51000000	    -33.18581975	     -0.78458251	      0.89807161	     -0.33642024	      0.62859054	     -0.67709890	    100.58831219	    -20.32126523	     -0.51642209	     94.01362582	      1.64084731	     33.70356619	      7.98854731	     -7.49999987	    100.82919468	    -18.79145495	     -0.06715406	     91.98182564	      1.60538571	     32.30615168	      8.19911146	     -7.49999987	    -36.47398050	      0.04523297	      0.04528644	    129.43738503	    -26.64310504	     42.66421997	     97.56142440	     98.18485708	    132.23647242	    -24.24847987	     45.58337299	     92.53524278	    104.37996044
      6.52000000	    -33.22094335	     -0.75622128	      0.95182701	     -0.33563123	      0.63209907	     -0.67754295	    100.12825946	    -20.19628661	     -0.40701995	     93.43620071	      1.63076934	     33.64000128	      7.99392365	     -7.49999987	    100.35314446	    -18.39881598	      0.04270362	     91.45304079	      1.59615667	     32.22636467	      8.13213119	     -7.49999987	    -35.99913702	      0.10689703	      0.03515868	    129.10601954	    -26.98111130	     42.66729987	     97.68108233	     98.19403802	    131.87807238	    -24.55888116	     45.58294323	     92.60713034	    104.38740755
      6.53000000	    -33.64757824	     -0.74738372	      1.26027617	     -0.33460846	      0.63558399	     -0.67848012	     99.99600235	    -20.48515880	     -0.49957753	     92.78716201	      1.61944148	     33.41383292	      7.73600743	     -7.49999987	    100.12803147	    -17.74667097	     -0.07966698	     90.61942024	      1.58160725	     31.77028879	      7.33232893	     -7.49999987	    -34.87945581	      0.31593063	     -0.14207834	    127.92557696	    -27.32555211	     42.37594190	     98.68779512	     98.23949736	    130.50699269	    -24.70524090	     45.00288372	     93.50622807	    104.43648409
      6.54000000	    -33.97841254	     -0.71515411	      1.41174919	     -0.33388115	      0.63919091	     -0.67912185	     99.77817174	    -20.51484627	     -0.48445117	     92.07369499	      1.60698913	     33.12954936	      7.52554023	     -7.49999987	     99.86640963	    -17.28207171	     -0.18563898	     89.85982890	      1.56834988	     31.15347468	      6.53970474	     -7.49999987	    -33.93367712	      0.44385180	     -0.15449064	    127.05912164	    -27.55542011	     42.13884929	     99.08396789	     98.21906890	    129.42802179	    -24.84344583	     44.42651755	     93.89897774	    104.45188638
      6.55000000	    -34.03298327	     -0.70723626	      1.54270253	     -0.33309948	      0.64336680	     -0.67963709	     99.22047526	    -20.53641120	     -0.55570445	     91.33179755	      1.59404058	     33.01593399	      7.51149366	     -7.49999987	     99.30597218	    -16.87241673	     -0.20776875	     89.09985175	      1.55508578	     30.98173006	      6.41982590	     -7.49999987	    -33.38917915	      0.55616258	     -0.20032855	    126.55241601	    -27.85820054	     42.23276610	     99.32023381	     98.22762316	    128.85541940	    -25.09672095	     44.47198660	     94.07515885	    104.47872475
      6.56000000	    -34.26366980	     -0.70586333	      1.72171723	     -0.33215602	      0.64753697	     -0.68024482	     98.82182764	    -20.60585670	     -0.64096307	     90.56801513	      1.58071006	     32.73845883	      7.20206171	     -7.49999987	     98.87392726	    -16.35675601	     -0.21578295	     88.25100122	      1.54027054	     30.38362468	      5.64041390	     -7.49999987	    -32.54109704	      0.70822931	     -0.26331488	    125.47895825	    -28.19343355	     41.86114284	     99.97927250	     98.20334676	    127.62508913	    -25.26156125	     43.81340889	     94.65824410	    104.49584531
      6.57000000	    -34.10744968	     -0.67035696	      1.75945268	     -0.33101019	      0.65267162	     -0.68040857	     97.94949564	    -20.47942718	     -0.73690475	     89.73965703	      1.56625248	     32.63134510	      7.16855996	     -7.49999987	     97.96913416	    -16.09434391	     -0.29078942	     87.39366734	      1.52530724	     30.22626335	      5.56806199	     -7.49999987	    -32.25413088	      0.72736648	     -0.27239993	    124.82512052	    -28.50073251	     41.93160353	    100.24405309	     98.21642645	    127.01808540	    -25.51240890	     43.82988325	     94.86897553	    104.51582601
      6.58000000	    -33.88946179	     -0.59414054	      1.82167099	     -0.32961226	      0.65811597	     -0.68052552	     97.00792482	    -20.40482500	     -0.82208820	     88.91792236	      1.55191051	     32.43202924	      6.95984560	     -7.49999987	     96.94410613	    -15.78085692	     -0.38542404	     86.50815653	      1.50985216	     29.94979965	      5.21665507	     -7.49999987	    -32.03923822	      0.69188402	     -0.29827571	    123.82761654	    -28.84435766	     41.51597990	    100.85883755	     98.23601129	    126.12803217	    -25.71956403	     43.36208122	     95.36176744	    104.54280210
